# 3ds Max Wavefront OBJ Exporter v0.97b - (c)2007 guruware
# File Created: 29.11.2015 09:06:17

mtllib 3d-model.mtl

#
# object Group_001
#

v  55.7087 11.6003 21.6538
v  -55.7086 11.6003 21.6538
v  -55.7086 18.5604 23.5872
v  55.7087 18.5604 23.5872
v  55.7087 6.5735 16.2404
v  -55.7086 6.5735 16.2404
v  -55.7086 25.5206 25.5206
v  55.7087 25.5206 25.5206
v  -55.7087 228.4082 14.6885
v  -55.7087 122.1894 -12.3736
v  55.7087 122.1894 -12.3736
v  55.7086 228.4083 14.6885
v  -55.7086 92.4154 -17.7871
v  55.7087 92.4154 -17.7871
v  -55.7086 62.6414 -23.2005
v  55.7087 62.6414 -23.2005
v  -55.7086 34.8008 -25.5206
v  55.7087 34.8008 -25.5206
v  -55.7086 21.2671 -20.4938
v  55.7087 21.2672 -20.4938
v  55.7087 3.8668 -8.8935
v  55.7087 7.7335 -15.4670
v  -55.7086 7.7335 -15.4670
v  -55.7086 3.8668 -8.8935
v  55.7087 0.0000 -2.3200
v  -55.7086 -0.0000 -2.3201
v  -55.7086 0.7733 4.2534
v  55.7087 0.7734 4.2534
v  55.7087 1.5467 10.8269
v  -55.7086 1.5467 10.8269
v  -55.7087 299.2867 -6.9602
v  55.7086 299.2868 -6.9601
v  55.7086 296.1934 -13.1470
v  -55.7087 296.1934 -13.1470
v  55.7086 280.7264 -17.0137
v  -55.7087 280.7263 -17.0137
v  -55.7087 290.0065 -17.0137
v  55.7086 290.0066 -17.0137
v  -55.7087 288.8465 20.1071
v  55.7086 288.8466 20.1071
v  55.7086 294.6467 17.0137
v  -55.7087 294.6467 17.0137
v  -55.7087 283.0464 23.2005
v  55.7086 283.0464 23.2005
v  -55.7087 276.8596 23.9739
v  55.7086 276.8596 23.9739
v  -55.7087 270.6728 24.7472
v  55.7086 270.6728 24.7472
v  -55.7087 257.1392 21.6538
v  55.7086 257.1392 21.6538
v  -55.7087 243.6055 18.5604
v  55.7086 243.6055 18.5604
v  55.7086 300.0601 5.4135
v  -55.7087 300.0601 5.4134
v  55.7086 297.3534 11.2136
v  -55.7087 297.3534 11.2136
v  -55.7086 38.6675 1.5467
v  -55.7086 26.2939 -0.7734
v  55.7087 26.2939 -0.7733
v  55.7087 38.6676 1.5467
v  -55.7086 44.8543 6.1868
v  55.7087 44.8544 6.1868
v  -55.7086 31.7074 23.5872
v  55.7087 31.7074 23.5872
v  55.7087 42.5343 17.0137
v  -55.7086 42.5343 17.0137
v  -55.7086 47.1744 12.3736
v  55.7087 47.1744 12.3736
v  55.7087 37.8942 21.6538
v  -55.7086 37.8942 21.6538
# 70 vertices

vn 0.0000 0.5199 -0.8543
vn 0.0000 0.2676 -0.9635
vn -0.0000 0.7328 -0.6805
vn 0.0000 -0.0160 -0.9999
vn -0.0000 -0.2469 0.9690
vn -0.0000 -0.2130 0.9770
vn -0.0000 -0.1789 0.9839
vn -0.0000 -0.1311 0.9914
vn -0.0000 0.1358 0.9907
vn -0.0000 0.3482 0.9374
vn -0.0000 0.8619 0.5070
vn -0.0000 0.6422 0.7665
vn -0.0000 0.9786 0.2058
vn -0.0000 0.9932 -0.1168
vn -0.0000 0.9078 -0.4194
vn -0.0000 0.9656 -0.2600
vn -0.0000 0.7399 -0.6728
vn 0.0000 0.0000 -1.0000
vn 0.0000 0.2757 -0.9612
vn -0.0000 0.4706 0.8824
vn -0.0000 0.7257 0.6880
vn -0.0000 0.3023 0.9532
vn -0.0000 0.1240 0.9923
vn -0.0000 -0.0502 0.9987
vn -0.0000 -0.2228 0.9749
vn -0.0000 -0.2349 0.9720
vn -0.0000 0.9825 0.1860
vn -0.0000 0.9062 0.4229
vn -0.0000 -0.4027 0.9153
vn -0.0000 -0.1843 0.9829
vn 0.0000 -0.8003 0.5996
vn 0.0000 -0.2983 -0.9545
vn 0.0000 -0.7071 -0.7071
vn 0.0000 -0.5177 -0.8556
vn 0.0000 -0.9363 0.3511
# 35 vertex normals

vt 0.0000 0.0000 0.0000
# 1 texture coords

g Group_001
usemtl Color_D04
s off
f 1/1/1 2/1/1 3/1/2 4/1/2 
f 1/1/1 5/1/3 6/1/3 2/1/1 
f 4/1/2 3/1/2 7/1/4 8/1/4 
f 9/1/5 10/1/6 11/1/6 12/1/5 
f 10/1/6 13/1/7 14/1/7 11/1/6 
f 13/1/7 15/1/8 16/1/8 14/1/7 
f 15/1/8 17/1/9 18/1/9 16/1/8 
f 19/1/10 20/1/10 18/1/9 17/1/9 
f 21/1/11 22/1/12 23/1/12 24/1/11 
f 25/1/13 21/1/11 24/1/11 26/1/13 
f 27/1/14 28/1/14 25/1/13 26/1/13 
f 29/1/15 28/1/14 27/1/14 30/1/15 
f 31/1/16 32/1/16 33/1/17 34/1/17 
f 35/1/18 36/1/18 37/1/19 38/1/19 
f 38/1/19 37/1/19 34/1/17 33/1/17 
f 39/1/20 40/1/20 41/1/21 42/1/21 
f 43/1/22 44/1/22 40/1/20 39/1/20 
f 45/1/23 46/1/23 44/1/22 43/1/22 
f 47/1/24 48/1/24 46/1/23 45/1/23 
f 49/1/25 50/1/25 48/1/24 47/1/24 
f 51/1/26 52/1/26 50/1/25 49/1/25 
f 5/1/3 29/1/15 30/1/15 6/1/3 
f 9/1/5 12/1/5 52/1/26 51/1/26 
f 19/1/10 23/1/12 22/1/12 20/1/10 
f 53/1/27 32/1/16 31/1/16 54/1/27 
f 55/1/28 53/1/27 54/1/27 56/1/28 
f 41/1/21 55/1/28 56/1/28 42/1/21 
f 57/1/29 58/1/30 59/1/30 60/1/29 
f 61/1/31 57/1/29 60/1/29 62/1/31 
f 8/1/4 7/1/4 63/1/32 64/1/32 
f 65/1/33 66/1/33 67/1/33 68/1/33 
f 69/1/34 70/1/34 66/1/33 65/1/33 
f 62/1/31 68/1/35 67/1/35 61/1/31 
f 64/1/32 63/1/32 70/1/34 69/1/34 
# 34 polygons

